<svg viewBox="0 0 20 20" fill="none" xmlns="http://www.w3.org/2000/svg">
<path d="M11.3099 0.246918C10.7908 -0.082594 10.128 -0.082284 9.60925 0.247717L1.73735 5.25516C0.398887 6.10658 1.00199 8.17835 2.5883 8.17835H18.3485C19.9356 8.17835 20.5381 6.10493 19.1982 5.25436L11.3099 0.246918Z" fill="currentColor"/>
<path d="M10.4684 9.69151C10.89 9.69151 11.2317 10.0333 11.2317 10.4549V16.1889C11.2317 16.6105 10.89 16.9523 10.4684 16.9523C10.0468 16.9523 9.705 16.6105 9.705 16.1889V10.4549C9.705 10.0333 10.0468 9.69151 10.4684 9.69151Z" fill="currentColor"/>
<path d="M1.0577 19.2366C1.0577 18.815 1.39947 18.4733 1.82107 18.4733H19.1157C19.5373 18.4733 19.879 18.815 19.879 19.2366C19.879 19.6582 19.5373 20 19.1157 20H1.82107C1.39947 20 1.0577 19.6582 1.0577 19.2366Z" fill="currentColor"/>
<path d="M6.1028 10.4549C6.1028 10.0333 5.76102 9.69151 5.33943 9.69151C4.91783 9.69151 4.57606 10.0333 4.57606 10.4549V16.1889C4.57606 16.6105 4.91783 16.9523 5.33943 16.9523C5.76102 16.9523 6.1028 16.6105 6.1028 16.1889V10.4549Z" fill="currentColor"/>
<path d="M15.5974 9.69151C16.019 9.69151 16.3608 10.0333 16.3608 10.4549V16.1889C16.3608 16.6105 16.019 16.9523 15.5974 16.9523C15.1758 16.9523 14.834 16.6105 14.834 16.1889V10.4549C14.834 10.0333 15.1758 9.69151 15.5974 9.69151Z" fill="currentColor"/>
</svg>
