<svg viewBox="0 0 31 11" fill="none" xmlns="http://www.w3.org/2000/svg">
<path fill-rule="evenodd" clip-rule="evenodd" d="M9.10729 1.40003H2.27751L2.77028 0H9.60006L9.10729 1.40003ZM8.86073 2.09991H2.03083L1.53806 3.49995H8.36795L8.86073 2.09991ZM8.12254 4.2H1.29276L0.799988 5.60004H7.62977L8.12254 4.2Z" fill="#00A5FF"/>
<path fill-rule="evenodd" clip-rule="evenodd" d="M25.8461 8.65737H27.088C27.559 8.65737 27.8445 8.5466 28.0444 8.29754C28.1443 8.17289 28.2871 7.95147 28.2871 7.53625C28.2871 7.12103 28.1443 6.83035 27.8589 6.6228C27.6876 6.49815 27.4591 6.429 27.0737 6.429H25.8461V8.65737ZM24.2044 9.99999V1.99997H29.5718L29.1007 3.34264H25.846V5.11416H27.1736C28.2442 5.11416 28.8009 5.36334 29.1863 5.68166C29.4861 5.93084 30 6.48446 30 7.57783C30 8.65744 29.4718 9.25258 29.0293 9.55702C28.5154 9.9031 27.9731 9.99999 26.8739 9.99999H24.2044ZM19.4509 9.99999V3.34264H17.067V1.99997H23.6905L23.2195 3.34264H21.1068V9.99999H19.4509ZM12.8417 5.19724H13.7696C14.055 5.19724 14.1977 5.19724 14.3406 5.15561C14.726 5.04496 14.9686 4.71276 14.9686 4.25603C14.9686 3.71617 14.7117 3.48098 14.3406 3.37021C14.1835 3.3287 14.0265 3.31483 13.7125 3.31483H12.8417V5.19724ZM12.856 6.5813V8.68502H13.998C14.3406 8.68502 14.6546 8.65739 14.883 8.44972C15.1114 8.24217 15.2113 7.97923 15.2113 7.63316C15.2113 7.37023 15.14 7.12105 14.9972 6.94113C14.7546 6.65044 14.4548 6.5813 13.9409 6.5813H12.856ZM15.4968 5.73715V5.76478C15.8108 5.87556 16.1105 6.06935 16.2676 6.19388C16.7529 6.58146 16.9671 7.09357 16.9671 7.75785C16.9671 8.85134 16.3675 9.64027 15.3826 9.88933C15.0828 9.97235 14.7688 10.0001 14.1835 10.0001H11.2V2.00007H13.8409C14.3834 2.00007 14.7545 2.02783 15.0828 2.11085C16.0392 2.36002 16.6673 2.99667 16.6673 4.00702C16.6673 4.54688 16.4674 5.00361 16.1391 5.30806C15.9964 5.44646 15.7965 5.61262 15.4968 5.73715Z" fill="#022D9A"/>
</svg>
