<svg viewBox="0 0 20 20" fill="none" xmlns="http://www.w3.org/2000/svg">
<path d="M6.26124 5.88897L6.45201 5.58775L6.30051 5.26499L4.21716 0.826615C4.18015 0.747759 4.2361 0.65 4.33334 0.65H15.2222C15.3195 0.65 15.3754 0.747758 15.3384 0.826616L13.2551 5.26499L13.1036 5.58775L13.2944 5.88897C13.9181 6.87378 14.8302 8.40072 15.5842 10.0089C16.3496 11.6414 16.9056 13.2628 16.9056 14.4664C16.9056 16.257 16.1801 17.43 14.9849 18.1889C13.7455 18.976 11.9443 19.35 9.77778 19.35C7.6113 19.35 5.8101 18.976 4.57065 18.1889C3.37546 17.43 2.65 16.257 2.65 14.4664C2.65 13.2628 3.20599 11.6414 3.97137 10.0089C4.72537 8.40073 5.63751 6.87379 6.26124 5.88897ZM10.7089 10.3501H9.77384V9.53432H10.7089C10.9389 9.53432 11.121 9.71936 11.121 9.9422C11.121 10.165 10.9389 10.3501 10.7089 10.3501ZM11.7952 12.8974C13.0023 12.4563 13.8654 11.301 13.8654 9.9422C13.8654 8.20195 12.4498 6.79559 10.7089 6.79559H8.73495C7.80446 6.79559 7.0294 7.54442 7.0294 8.49545V10.3507C6.29331 10.3729 5.69931 10.9749 5.69931 11.7194C5.69931 12.2704 6.02455 12.7432 6.49193 12.9609C6.01949 13.1766 5.68987 13.6521 5.68987 14.2068C5.68987 14.9545 6.28895 15.5584 7.0294 15.5757V15.6294C7.0294 16.3881 7.64619 16.9987 8.40162 16.9987C9.15704 16.9987 9.77384 16.3881 9.77384 15.6294V15.5761H11.3923C12.1477 15.5761 12.7645 14.9655 12.7645 14.2068C12.7645 13.5887 12.3552 13.069 11.7952 12.8974Z" fill="currentColor" stroke="currentColor" stroke-width="1.3"/>
</svg>
