<svg width="48" height="48" viewBox="0 0 48 48" fill="none" xmlns="http://www.w3.org/2000/svg">
<rect width="48" height="48" rx="16" fill="#0062FF" fill-opacity="0.24"/>
<path d="M22.0534 16.9868C22.0534 17.5137 22.2627 18.0191 22.6353 18.3917C23.0079 18.7643 23.5132 18.9736 24.0402 18.9736C24.5671 18.9736 25.0725 18.7643 25.4451 18.3917C25.8177 18.0191 26.027 17.5137 26.027 16.9868C26.027 16.4599 25.8177 15.9545 25.4451 15.5819C25.0725 15.2093 24.5671 15 24.0402 15C23.5132 15 23.0079 15.2093 22.6353 15.5819C22.2627 15.9545 22.0534 16.4599 22.0534 16.9868Z" stroke="#0062FF" stroke-width="2" stroke-linecap="round" stroke-linejoin="round"/>
<path d="M24.0402 18.9736V26.9209H28.0138L31.9874 31.8879M24.0402 22.9472H29.0072M20.0666 23.4439C19.3548 23.7387 18.7213 24.195 18.2163 24.7768C17.7112 25.3585 17.3484 26.0498 17.1565 26.7959C16.9646 27.542 16.949 28.3225 17.1107 29.0758C17.2724 29.829 17.6072 30.5343 18.0884 31.1359C18.5697 31.7375 19.1843 32.2188 19.8837 32.542C20.583 32.8651 21.3479 33.0211 22.118 32.9977C22.888 32.9743 23.6421 32.7721 24.3205 32.4071C24.9989 32.042 25.5832 31.5242 26.027 30.8945" stroke="#0062FF" stroke-width="2" stroke-linecap="round" stroke-linejoin="round"/>
</svg>
