<svg width="48" height="48" viewBox="0 0 48 48" fill="none" xmlns="http://www.w3.org/2000/svg">
<rect width="48" height="48" rx="16" fill="#0062FF" fill-opacity="0.24"/>
<path fill-rule="evenodd" clip-rule="evenodd" d="M18 31C16.3431 31 15 29.6569 15 28V20C15 18.3431 16.3431 17 18 17H30C30.1036 17 30.2059 17.0052 30.3067 17.0155C31.8195 17.1691 33 18.4467 33 20V28C33 29.6569 31.6569 31 30 31H18ZM18.0186 20.8956C18.0186 20.47 18.3701 20.1249 18.8036 20.1249H20.7358C21.1694 20.1249 21.5209 20.47 21.5209 20.8956V22.8564C21.5209 23.2821 21.1694 23.6272 20.7358 23.6272H18.8036C18.3701 23.6272 18.0186 23.2821 18.0186 22.8564V20.8956ZM18.6686 26.8308C18.3096 26.8308 18.0186 27.1218 18.0186 27.4808C18.0186 27.8398 18.3096 28.1308 18.6686 28.1308H20.3615C20.7205 28.1308 21.0115 27.8398 21.0115 27.4808C21.0115 27.1218 20.7205 26.8308 20.3615 26.8308L18.6686 26.8308ZM27.0148 27.4808C27.0148 27.1218 27.3058 26.8308 27.6648 26.8308H29.3577C29.7167 26.8308 30.0077 27.1218 30.0077 27.4808C30.0077 27.8398 29.7167 28.1308 29.3577 28.1308H27.6648C27.3058 28.1308 27.0148 27.8398 27.0148 27.4808ZM23.1536 26.8308C22.7946 26.8308 22.5036 27.1218 22.5036 27.4808C22.5036 27.8398 22.7946 28.1308 23.1536 28.1308H24.8465C25.2055 28.1308 25.4965 27.8398 25.4965 27.4808C25.4965 27.1218 25.2055 26.8308 24.8465 26.8308H23.1536Z" fill="#0062FF"/>
</svg>
