<svg width="48" height="48" viewBox="0 0 48 48" fill="none" xmlns="http://www.w3.org/2000/svg">
<rect width="48" height="48" rx="16" fill="currentColor" fill-opacity="0.24"/>
<path fill-rule="evenodd" clip-rule="evenodd" d="M18.9003 19.52C18.5543 16.5778 20.9358 14 24 14C27.0642 14 29.4457 16.5778 29.0997 19.52L28.7985 22.0822C28.5211 24.4406 26.4562 26.2222 24 26.2222C21.5438 26.2222 19.4789 24.4406 19.2015 22.0822L18.9003 19.52Z" fill="currentColor"/>
<path fill-rule="evenodd" clip-rule="evenodd" d="M15.1344 32.5538C15.8358 29.5035 18.6354 27.3333 21.8687 27.3333H26.1313C29.3646 27.3333 32.1642 29.5035 32.8656 32.5538L32.9805 33.0535C33.0922 33.5392 32.7097 34 32.1948 34H15.8052C15.2903 34 14.9078 33.5392 15.0195 33.0535L15.1344 32.5538Z" fill="currentColor"/>
</svg>
