<svg width="48" height="48" viewBox="0 0 48 48" fill="none" xmlns="http://www.w3.org/2000/svg">
<rect width="48" height="48" rx="16" fill="#0062FF" fill-opacity="0.24"/>
<path d="M26.3262 17.7255C26.3262 19.2308 23.7907 20.4511 20.6631 20.4511C17.5355 20.4511 15 19.2308 15 17.7255C15 16.2203 17.5355 15 20.6631 15C23.7907 15 26.3262 16.2203 26.3262 17.7255Z" fill="#0062FF"/>
<path d="M33.4728 24.607C33.4728 26.1123 30.9373 27.3325 27.8097 27.3325C24.682 27.3325 22.1466 26.1123 22.1466 24.607C22.1466 23.1017 24.682 21.8814 27.8097 21.8814C30.9373 21.8814 33.4728 23.1017 33.4728 24.607Z" fill="#0062FF"/>
<path d="M22.2979 27.6379C22.5305 27.3506 22.9519 27.3062 23.2392 27.5388C23.5317 27.7756 25.059 28.8703 27.805 28.8703C30.5685 28.8703 32.03 27.854 32.368 27.5565C32.6455 27.3123 33.0684 27.3393 33.3126 27.6168C33.5568 27.8943 33.5298 28.3172 33.2523 28.5614C32.6819 29.0634 30.9096 30.2088 27.805 30.2088C24.683 30.2088 22.8675 28.9601 22.397 28.5792C22.1097 28.3466 22.0653 27.9252 22.2979 27.6379Z" fill="#0062FF"/>
<path d="M23.2392 30.2668C22.9519 30.0342 22.5305 30.0786 22.2979 30.3659C22.0653 30.6532 22.1097 31.0746 22.397 31.3072C22.8589 31.6811 24.7293 33 27.8601 33C30.9849 33 32.6987 31.7766 33.2523 31.2894C33.5298 31.0452 33.5568 30.6223 33.3126 30.3449C33.0684 30.0674 32.6455 30.0404 32.368 30.2846C32.0132 30.5968 30.6033 31.6615 27.8601 31.6615C25.1227 31.6615 23.5403 30.5106 23.2392 30.2668Z" fill="#0062FF"/>
<path d="M16.0926 20.6574C15.8053 20.4248 15.3839 20.4692 15.1513 20.7565C14.9187 21.0438 14.9631 21.4652 15.2504 21.6978C15.7209 22.0787 17.5364 23.3274 20.6585 23.3274C21.0281 23.3274 21.3277 23.0278 21.3277 22.6582C21.3277 22.2885 21.0281 21.9889 20.6585 21.9889C17.9124 21.9889 16.3851 20.8942 16.0926 20.6574Z" fill="#0062FF"/>
<path d="M15.1513 23.4844C15.3839 23.1971 15.8053 23.1528 16.0926 23.3854C16.3937 23.6291 17.9761 24.78 20.7135 24.78C21.0831 24.78 21.3827 25.0796 21.3827 25.4493C21.3827 25.8189 21.0831 26.1185 20.7135 26.1185C17.5827 26.1185 15.7123 24.7996 15.2504 24.4257C14.9631 24.1932 14.9187 23.7717 15.1513 23.4844Z" fill="#0062FF"/>
<path d="M16.0926 26.2073C15.8053 25.9747 15.3839 26.0191 15.1513 26.3064C14.9187 26.5937 14.9631 27.0151 15.2504 27.2477C15.7123 27.6216 17.5827 28.9405 20.7135 28.9405C21.0831 28.9405 21.3827 28.6408 21.3827 28.2712C21.3827 27.9016 21.0831 27.6019 20.7135 27.6019C17.9761 27.6019 16.3937 26.4511 16.0926 26.2073Z" fill="#0062FF"/>
</svg>
