<svg viewBox="0 0 13 12" fill="none" xmlns="http://www.w3.org/2000/svg">
<path fill-rule="evenodd" clip-rule="evenodd" d="M6 0C2.68629 0 0 2.68629 0 6C0 9.31371 2.68629 12 6 12C9.31371 12 12 9.31371 12 6C12 2.68629 9.31371 0 6 0ZM6 3.00228C6.23932 3.00228 6.43333 3.19629 6.43333 3.43561V6.00228H8.66666C8.90599 6.00228 9.1 6.19629 9.1 6.43561C9.1 6.67494 8.90599 6.86895 8.66666 6.86895H6C5.76068 6.86895 5.56667 6.67494 5.56667 6.43561V3.43561C5.56667 3.19629 5.76068 3.00228 6 3.00228Z" fill="#0062FF"/>
</svg>
