<svg viewBox="0 0 18 18" fill="none" xmlns="http://www.w3.org/2000/svg">
<path fill-rule="evenodd" clip-rule="evenodd" d="M3.05298 5.41602C2.78216 3.06224 4.64635 1 7.04489 1C9.44343 1 11.3076 3.06224 11.0368 5.41602L10.801 7.46576C10.5839 9.3525 8.96751 10.7778 7.04489 10.7778C5.12227 10.7778 3.5059 9.3525 3.28882 7.46576L3.05298 5.41602Z" fill="currentColor"/>
<path fill-rule="evenodd" clip-rule="evenodd" d="M0.105204 15.843C0.654249 13.4028 2.84564 11.6667 5.37661 11.6667H8.71316C11.2441 11.6667 13.4355 13.4028 13.9846 15.843L14.0745 16.2428C14.1619 16.6314 13.8626 17 13.4595 17H0.630256C0.227214 17 -0.072174 16.6314 0.0152579 16.2428L0.105204 15.843Z" fill="currentColor"/>
<path d="M15.2416 16.6354C15.2252 16.7465 15.2442 16.8689 15.3401 16.929C15.4115 16.9737 15.4935 17 15.5828 17H17.3697C17.7728 17 18.0722 16.6314 17.9847 16.2428L17.8948 15.843C17.4438 13.8388 15.885 12.3095 13.94 11.827C13.6082 11.7447 13.3718 11.9693 13.3326 12.2501C13.3209 12.3346 13.363 12.4148 13.4233 12.4759C14.2511 13.3161 14.8546 14.3832 15.1267 15.5923L15.2167 15.9921C15.266 16.2113 15.2722 16.4283 15.2416 16.6354Z" fill="currentColor"/>
<path d="M10.934 10.0695C10.7875 10.2529 10.6444 10.5085 10.7871 10.6947C10.8259 10.7453 10.8801 10.7778 10.9551 10.7778C12.8777 10.7778 14.4941 9.3525 14.7112 7.46576L14.947 5.41602C15.2178 3.06224 13.3537 1 10.9551 1C10.848 1 10.7651 1.04598 10.7116 1.11531C10.6427 1.20463 10.6941 1.32456 10.7731 1.40529C11.8079 2.46233 12.3827 3.95263 12.1993 5.54645L11.9635 7.59619C11.8561 8.52955 11.4872 9.37666 10.934 10.0695Z" fill="currentColor"/>
</svg>
