<svg width="48" height="48" viewBox="0 0 48 48" fill="none" xmlns="http://www.w3.org/2000/svg">
<rect width="48" height="48" rx="16" fill="#0062FF" fill-opacity="0.24"/>
<path fill-rule="evenodd" clip-rule="evenodd" d="M24 15C19.0294 15 15 19.0294 15 24C15 28.9706 19.0294 33 24 33C28.9706 33 33 28.9706 33 24C33 19.0294 28.9706 15 24 15ZM24 19.5034C24.359 19.5034 24.65 19.7944 24.65 20.1534V24.0034H28C28.359 24.0034 28.65 24.2944 28.65 24.6534C28.65 25.0124 28.359 25.3034 28 25.3034H24C23.641 25.3034 23.35 25.0124 23.35 24.6534V20.1534C23.35 19.7944 23.641 19.5034 24 19.5034Z" fill="#0062FF"/>
</svg>
