<svg width="18" height="17" viewBox="0 0 18 17" fill="none" xmlns="http://www.w3.org/2000/svg">
<path d="M17.9231 0.469676C18.0678 0.798851 18.0082 1.07985 17.7444 1.31269L11.451 7.24988V16.1858C11.451 16.523 11.285 16.7598 10.9531 16.8963C10.8425 16.9365 10.7361 16.9565 10.634 16.9565C10.4042 16.9565 10.2127 16.8803 10.0595 16.7277L6.79155 13.6447C6.62986 13.4922 6.54901 13.3115 6.54901 13.1028V7.24988L0.255578 1.31269C-0.00824443 1.07985 -0.0678172 0.798851 0.0768594 0.469676C0.221536 0.156559 0.472592 0 0.830029 0H17.17C17.5274 0 17.7785 0.156559 17.9231 0.469676Z" fill="#222222" fill-opacity="0.4"/>
</svg>
